<?xml version="1.0" standalone="no"?>
<!DOCTYPE svg PUBLIC "-//W3C//DTD SVG 20010904//EN"
 "http://www.w3.org/TR/2001/REC-SVG-20010904/DTD/svg10.dtd">
<svg version="1.0" xmlns="http://www.w3.org/2000/svg"
 width="256.000000pt" height="256.000000pt" viewBox="0 0 256.000000 256.000000"
 preserveAspectRatio="xMidYMid meet">
<metadata>
Created by potrace 1.11, written by Peter Selinger 2001-2013
</metadata>
<g transform="translate(0.000000,256.000000) scale(0.100000,-0.100000)"
fill="#000000" stroke="none">
<path d="M1086 2544 c-689 -107 -1172 -758 -1072 -1444 41 -281 161 -518 365
-721 154 -154 306 -249 506 -314 187 -61 388 -79 575 -50 286 43 518 160 721
364 154 153 247 303 314 504 128 386 61 812 -182 1149 -110 152 -297 311 -471
397 -219 110 -508 154 -756 115z m-30 -155 c-86 -91 -162 -194 -227 -308 -28
-50 -58 -91 -64 -91 -42 0 -308 136 -302 155 2 5 44 41 93 78 139 106 296 180
469 221 102 24 104 22 31 -55z m554 35 c118 -34 288 -120 394 -201 49 -37 91
-73 93 -79 6 -17 -261 -154 -301 -154 -7 0 -37 41 -65 91 -65 115 -141 217
-228 310 l-68 72 45 -8 c25 -4 83 -18 130 -31z m-375 -522 c-17 -18 -365 42
-365 62 0 19 89 166 149 245 31 41 92 111 136 155 l80 81 3 -269 c1 -148 0
-271 -3 -274z m228 403 c99 -113 242 -334 226 -349 -9 -10 -208 -46 -286 -52
l-83 -7 0 272 0 272 36 -28 c21 -15 68 -64 107 -108z m-1022 -261 c47 -29 217
-113 266 -130 l31 -11 -33 -99 c-42 -126 -62 -219 -77 -366 l-12 -118 -264 0
-265 0 7 73 c15 149 55 287 127 427 47 91 156 250 172 250 4 0 26 -12 48 -26z
m1792 -52 c129 -173 213 -389 233 -599 l7 -73 -265 0 -264 0 -12 118 c-15 147
-35 240 -77 366 l-33 98 42 16 c56 22 224 106 261 131 17 11 35 20 40 20 6 1
36 -34 68 -77z m-1280 -146 c67 -14 159 -28 205 -31 l82 -7 -2 -242 -3 -241
-264 -3 -264 -2 6 91 c8 107 48 294 84 391 14 37 27 68 29 68 3 0 60 -11 127
-24z m810 -44 c36 -97 76 -284 84 -391 l6 -91 -264 2 -264 3 -3 241 -2 241
112 12 c62 6 149 20 193 30 117 27 109 30 138 -47z m-1139 -649 c9 -114 39
-269 71 -363 13 -41 25 -79 25 -85 0 -5 -31 -23 -70 -39 -38 -15 -117 -55
-175 -87 -59 -33 -110 -57 -114 -54 -21 12 -116 164 -156 247 -64 134 -115
331 -115 444 l0 24 264 0 263 0 7 -87z m611 -138 l0 -220 -95 -8 c-52 -4 -138
-17 -190 -29 -146 -32 -142 -32 -163 32 -33 97 -67 262 -73 358 l-7 92 264 -2
264 -3 0 -220z m611 133 c-7 -98 -41 -266 -73 -358 -23 -64 -19 -63 -163 -32
-52 12 -138 25 -190 29 l-95 8 -3 210 c-1 115 0 215 2 222 4 10 64 13 267 13
l262 0 -7 -92z m624 68 c0 -112 -51 -307 -115 -443 -39 -83 -135 -236 -156
-249 -4 -2 -46 17 -93 44 -46 27 -124 66 -173 87 -48 22 -90 40 -92 42 -2 1 8
41 23 87 34 106 63 255 72 369 l7 87 263 0 264 0 0 -24z m-1230 -807 l0 -291
-40 32 c-52 41 -171 181 -232 271 -49 74 -118 200 -118 216 0 19 217 60 323
62 l67 1 0 -291z m368 260 c56 -12 102 -26 102 -31 0 -17 -69 -143 -118 -217
-61 -90 -180 -230 -232 -271 l-40 -32 0 293 0 292 93 -6 c50 -3 138 -16 195
-28z m-814 -128 c55 -108 167 -269 252 -360 l78 -83 -45 7 c-203 34 -437 148
-598 293 l-54 48 49 31 c57 37 253 133 271 133 7 0 28 -31 47 -69z m1141 16
c61 -30 130 -66 155 -82 l44 -28 -54 -49 c-162 -145 -395 -259 -599 -293 l-45
-7 77 83 c88 95 173 215 242 342 26 48 52 87 58 87 7 0 62 -24 122 -53z"/>
</g>
</svg>
